<?xml version="1.0" standalone="no"?>
<!DOCTYPE svg PUBLIC "-//W3C//DTD SVG 20010904//EN"
 "http://www.w3.org/TR/2001/REC-SVG-20010904/DTD/svg10.dtd">
<svg version="1.0" xmlns="http://www.w3.org/2000/svg"
 width="200.000000pt" height="200.000000pt" viewBox="0 0 200.000000 200.000000"
 preserveAspectRatio="xMidYMid meet">
<metadata>
Created by potrace 1.14, written by Peter Selinger 2001-2017
</metadata>
<g transform="translate(0.000000,200.000000) scale(0.100000,-0.100000)"
fill="#000000" stroke="none">
<path d="M889 1996 c-2 -2 -22 -6 -44 -9 -54 -8 -128 -25 -157 -36 -38 -15
-62 -24 -75 -27 -7 -1 -50 -24 -95 -50 -256 -147 -416 -357 -489 -640 -41
-162 -33 -384 21 -544 26 -77 80 -194 92 -198 4 -2 8 -8 8 -12 0 -36 164 -217
261 -288 66 -48 228 -134 240 -127 4 3 10 1 13 -4 3 -4 20 -12 38 -16 18 -4
38 -9 43 -11 69 -22 157 -31 270 -29 72 2 141 6 155 9 14 3 41 9 60 12 19 4
40 9 45 13 6 3 16 7 23 8 176 40 415 218 536 403 62 94 124 233 118 263 -1 4
2 7 6 7 4 0 8 8 9 18 1 9 8 51 17 92 19 98 14 290 -9 390 -55 237 -188 440
-385 587 -72 54 -237 138 -290 147 -14 3 -25 5 -25 6 0 1 -7 3 -15 5 -8 2 -37
9 -65 15 -45 11 -297 24 -306 16z"/>
</g>
</svg>
