<svg width="29" height="28" viewBox="0 0 29 28" fill="none" xmlns="http://www.w3.org/2000/svg">
<path d="M28.5 14C28.5 21.4395 22.2487 27.5 14.5 27.5C6.75133 27.5 0.5 21.4395 0.5 14C0.5 6.56055 6.75133 0.5 14.5 0.5C22.2487 0.5 28.5 6.56055 28.5 14Z" stroke="#2B7DF7"/>
<path d="M12.8122 16.2604L10.9135 14.2362C10.8113 14.127 10.6725 14.0656 10.5277 14.0656C10.383 14.0656 10.2442 14.127 10.142 14.2362C9.92858 14.4637 9.92858 14.8312 10.142 15.0587L12.4292 17.4971C12.6425 17.7246 12.9873 17.7246 13.2007 17.4971L18.9897 11.3254C19.2031 11.0979 19.2031 10.7304 18.9897 10.5029C18.8875 10.3937 18.7487 10.3323 18.604 10.3323C18.4592 10.3323 18.3204 10.3937 18.2182 10.5029L12.8122 16.2604Z" fill="#2B7DF7"/>
</svg>
