<svg width="26" height="37" viewBox="0 0 26 37" fill="current" xmlns="http://www.w3.org/2000/svg">
<path d="M14.5412 15.8713C14.5219 15.8619 14.5179 15.8337 14.5296 15.8161L19.6617 9.5946V8.93001C19.6617 8.81959 19.5879 8.73037 19.4967 8.73037H10.0519V4.98199H10.0509V3.85819L6.56634 4.74126V5.38011H6.76247C6.76247 5.38011 7.61585 5.38011 7.61585 6.41119V8.73047H4.91193C4.8585 8.73047 4.81482 8.78331 4.81482 8.84793V10.2841H7.6149V18.2589C7.6149 20.7636 8.94114 22.4945 11.2761 22.2656C11.7722 22.2174 12.2296 21.9825 12.6198 21.6784C12.7936 21.5434 12.8995 21.3096 12.8995 21.0596V20.2775C12.1392 20.8846 11.5034 20.8564 11.5034 20.8564C10.0247 20.8564 10.0528 18.5912 10.0528 18.5912V10.2829H16.8501L11.9539 16.2473C11.9432 17.0282 11.9334 17.6435 11.9334 17.6552C11.9334 17.6729 11.9431 17.6917 11.9587 17.694C16.4462 18.6135 17.6559 22.1177 17.6559 23.1463C17.6559 23.1463 18.1384 28.1125 14.0306 28.4565C14.0306 28.4565 11.3393 28.6022 10.8674 27.2975C10.8509 27.2529 10.8645 27.2013 10.9024 27.1813C11.3499 26.9335 11.6519 26.4521 11.6519 25.8027C11.6519 24.8339 11.1664 24.0482 10.1509 24.0482C9.3227 24.0482 8.64983 24.8339 8.64983 25.8027C8.64983 25.8027 8.26637 29.9844 14.0306 29.8657C20.6298 29.7306 20.2171 23.0453 20.2171 23.0453C19.9938 18.2624 15.0179 16.0885 14.5412 15.8713Z" />
<path d="M13.0266 1.84509C9.33562 1.84509 5.64463 1.86059 1.95386 1.8296C1.33911 1.82419 1.17378 2.04114 1.17586 2.75596C1.1977 9.02892 1.18855 15.3026 1.18959 21.5761C1.18959 21.7997 1.19312 22.0248 1.20685 22.2476C1.67664 29.7392 7.07357 35.5487 13.3182 35.286C19.7801 35.0144 24.8174 28.9146 24.8362 21.3075C24.8513 15.1339 24.828 8.9598 24.8545 2.78596C24.8574 2.02269 24.67 1.82296 24.0361 1.82837C20.3666 1.86182 16.6964 1.84509 13.0266 1.84509ZM13.0058 0.479168C17.0536 0.479168 21.1015 0.478677 25.15 0.479907C25.9924 0.479907 25.9956 0.483594 25.9956 1.44931C25.9966 8.14315 26.0062 14.8377 25.9935 21.5318C25.9804 28.4741 21.7874 34.642 16.0176 36.2441C10.1883 37.8629 4.12835 34.5682 1.4589 28.3437C0.498306 26.1031 0.014994 23.7333 0.0145781 21.2266C0.0120825 14.6065 0.0233137 7.98671 2.1505e-05 1.3679C-0.00247409 0.622085 0.211937 0.461948 0.799025 0.465638C4.86788 0.491958 8.93653 0.479168 13.0058 0.479168Z" />
</svg>
