<svg width="116" height="132" viewBox="0 0 116 132" fill="none" xmlns="http://www.w3.org/2000/svg">
<path d="M64.8763 56.5241C64.7898 56.4903 64.7723 56.3878 64.8243 56.3243L87.7214 33.7923V31.3854C87.7214 30.9855 87.3923 30.6624 86.9852 30.6624H44.8468V17.0872H44.8423V13.0172L29.296 16.2154V18.5291H30.171C30.171 18.5291 33.9784 18.5291 33.9784 22.2632V30.6628H21.9148C21.6764 30.6628 21.4815 30.8541 21.4815 31.0882V36.2894H33.9742V65.171C33.9742 74.2423 39.8912 80.511 50.309 79.6817C52.5222 79.5072 54.5627 78.6566 56.3038 77.5552C57.0793 77.0663 57.5515 76.2196 57.5515 75.3141V72.4817C54.1597 74.6804 51.3227 74.5783 51.3227 74.5783C44.7256 74.5783 44.851 66.3746 44.851 66.3746V36.2852H75.1773L53.3326 57.8858C53.285 60.7141 53.2415 62.9424 53.2415 62.9849C53.2415 63.0488 53.2848 63.1171 53.3541 63.1252C73.3752 66.4553 78.7725 79.1463 78.7725 82.8716C78.7725 82.8716 80.9253 100.857 62.5981 102.103C62.5981 102.103 50.5905 102.631 48.4853 97.9057C48.4119 97.744 48.4724 97.557 48.6413 97.4848C50.6381 96.5873 51.9853 94.8436 51.9853 92.4918C51.9853 88.9831 49.8194 86.1378 45.2885 86.1378C41.5936 86.1378 38.5916 88.9831 38.5916 92.4918C38.5916 92.4918 36.8807 107.636 62.5981 107.207C92.0405 106.717 90.1995 82.5057 90.1995 82.5057C89.2031 65.1836 67.0031 57.3109 64.8763 56.5241Z" fill="white"/>
<path d="M58.1187 5.72656C41.6512 5.72656 25.1838 5.78269 8.71723 5.67044C5.97451 5.65084 5.23688 6.43656 5.24615 9.02535C5.34358 31.7437 5.30275 54.4647 5.30738 77.1848C5.30738 77.9945 5.32317 78.8096 5.3844 79.6168C7.48041 106.748 31.559 127.788 59.4195 126.837C88.2496 125.853 110.724 103.762 110.807 76.212C110.875 53.8535 110.771 31.4933 110.889 9.13404C110.902 6.36974 110.066 5.64639 107.238 5.66598C90.8661 5.78714 74.4915 5.72656 58.1187 5.72656ZM58.0259 0.779693C76.0855 0.779693 94.1452 0.777914 112.208 0.782368C115.966 0.782368 115.98 0.795723 115.98 4.29318C115.985 28.5357 116.028 52.7809 115.971 77.0244C115.912 102.167 97.2052 124.505 71.463 130.307C45.4554 136.169 18.4188 124.237 6.50894 101.695C2.22321 93.5799 0.0668965 84.9975 0.0650408 75.9189C0.0539066 51.9436 0.104015 27.9692 9.59452e-05 3.99833C-0.0110382 1.29729 0.945566 0.71733 3.56488 0.730692C21.7182 0.826013 39.8707 0.779693 58.0259 0.779693Z" fill="white"/>
</svg>
